<svg width="364" height="62" viewBox="0 0 364 62" fill="none" xmlns="http://www.w3.org/2000/svg">
<path d="M71.6031 55.2316L71.6012 6.23308L85.0069 4.20935L92.7697 4.20984L92.7692 12.7684L80.3789 12.7676L80.3781 26.5693L92.7687 20.3246L92.7681 29.8856L80.3775 36.2073L80.3774 56.9738L71.6031 55.2316Z" fill="white"/>
<path d="M97.1564 11.535C97.1567 6.83166 99.7735 4.21028 104.237 4.21057L114.011 4.21119C118.474 4.21147 121.168 6.83319 121.167 11.5366L121.167 12.8473L112.317 17.473L112.317 12.6926L105.93 12.6921L105.929 26.1854L121.167 18.3217L121.165 50.3971C121.165 55.1005 118.471 57.7219 114.007 57.7216L104.234 57.721C99.7701 57.7207 97.1537 55.099 97.154 50.3956L97.1543 45.3838L105.928 40.8352L105.927 49.2396L112.315 49.24L112.316 32.4313L97.1546 40.372L97.1564 11.535Z" fill="white"/>
<path d="M151.378 4.21356L151.375 49.1654L157.763 49.1658L157.765 4.21396L166.616 4.21453L166.613 50.2458C166.612 55.3347 164.15 57.7248 158.916 57.7244L152.067 57.724C148.912 57.7238 147.065 55.8732 147.065 52.5577C147.065 55.8732 145.141 57.7236 141.986 57.7234L134.598 57.7229C130.134 57.7226 127.518 55.1009 127.518 50.3975L127.521 4.21204L136.294 4.2126L136.291 49.1644L142.756 49.1648L142.759 4.21301L151.378 4.21356Z" fill="white"/>
<path d="M203.79 23.2617L203.79 12.467L196.71 12.4666L196.709 26.7309L203.79 23.2617ZM212.255 29.2763L212.253 50.3258C212.253 55.3376 209.713 57.7277 204.403 57.7273L188.242 57.7263L188.246 4.2159L205.099 4.21697C209.563 4.21725 212.256 6.83897 212.256 11.5423L212.255 22.7996C212.255 26.2693 211.177 28.351 208.484 29.2761L212.255 29.2763ZM203.788 49.4L203.789 32.2058L196.709 35.7521L196.708 49.3996L203.788 49.4Z" fill="white"/>
<path d="M242.615 57.7297L233.842 57.7292L233.843 35.0605L227.379 38.3756L227.378 57.7288L218.604 57.7282L218.607 11.5427C218.608 6.83937 221.224 4.21799 225.688 4.21828L235.462 4.2189C239.925 4.21918 242.618 6.8409 242.618 11.5443L242.615 57.7297ZM233.844 25.6538L233.845 12.7003L227.38 12.6999L227.379 28.8147L233.844 25.6538Z" fill="white"/>
<path d="M264.357 25.8099L264.357 12.7022L257.893 12.7018L257.892 29.0479L264.357 25.8099ZM273.13 30.7452L266.665 34.0602L276.668 57.7319L267.51 57.7313L259.2 37.915L257.891 38.6088L257.89 57.7307L249.117 57.7302L249.12 4.21976L265.974 4.22083C270.438 4.22112 273.131 6.84283 273.131 11.5462L273.13 30.7452Z" fill="white"/>
<path d="M294.952 23.2674L294.952 12.4728L287.872 12.4724L287.871 26.7367L294.952 23.2674ZM303.417 29.2821L303.415 50.3316C303.415 55.3434 300.875 57.7334 295.565 57.7331L279.404 57.7321L279.407 4.22168L296.261 4.22275C300.725 4.22304 303.418 6.84475 303.418 11.5481L303.417 22.8053C303.417 26.275 302.339 28.3568 299.646 29.2819L303.417 29.2821ZM294.95 49.4058L294.951 32.2115L287.871 35.7579L287.87 49.4054L294.95 49.4058Z" fill="white"/>
<path d="M330.93 57.7354L309.766 57.734L309.77 4.22361L330.933 4.22495L330.933 12.7835L318.542 12.7827L318.542 26.5844L330.932 20.3398L330.932 29.9007L318.541 36.2225L318.54 49.176L330.93 49.1768L330.93 57.7354Z" fill="white"/>
<path d="M351.535 25.8155L351.536 12.7077L345.072 12.7073L345.071 29.0534L351.535 25.8155ZM360.308 30.7507L353.844 34.0658L363.847 57.7374L354.689 57.7369L346.379 37.9205L345.07 38.6144L345.069 57.7362L336.296 57.7357L336.299 4.22529L353.153 4.22636C357.617 4.22665 360.31 6.84836 360.31 11.5517L360.308 30.7507Z" fill="white"/>
<path d="M71.6031 55.2316L71.6012 6.23308L85.0069 4.20935L92.7697 4.20984L92.7692 12.7684L80.3789 12.7676L80.3781 26.5693L92.7687 20.3246L92.7681 29.8856L80.3775 36.2073L80.3774 56.9738L71.6031 55.2316Z" fill="#8162FF"/>
<path d="M97.1564 11.535C97.1567 6.83166 99.7735 4.21028 104.237 4.21057L114.011 4.21119C118.474 4.21147 121.168 6.83319 121.167 11.5366L121.167 12.8473L112.317 17.473L112.317 12.6926L105.93 12.6921L105.929 26.1854L121.167 18.3217L121.165 50.3971C121.165 55.1005 118.471 57.7219 114.007 57.7216L104.234 57.721C99.7701 57.7207 97.1537 55.099 97.154 50.3956L97.1543 45.3838L105.928 40.8352L105.927 49.2396L112.315 49.24L112.316 32.4313L97.1546 40.372L97.1564 11.535Z" fill="#8162FF"/>
<path d="M151.378 4.21356L151.375 49.1654L157.763 49.1658L157.765 4.21396L166.616 4.21453L166.613 50.2458C166.612 55.3347 164.15 57.7248 158.916 57.7244L152.067 57.724C148.912 57.7238 147.065 55.8732 147.065 52.5577C147.065 55.8732 145.141 57.7236 141.986 57.7234L134.598 57.7229C130.134 57.7226 127.518 55.1009 127.518 50.3975L127.521 4.21204L136.294 4.2126L136.291 49.1644L142.756 49.1648L142.759 4.21301L151.378 4.21356Z" fill="#8162FF"/>
<path fill-rule="evenodd" clip-rule="evenodd" d="M5.91839 13.7997C5.91825 16.1133 6.83818 18.3322 8.47581 19.9683C10.1134 21.6044 12.3346 22.5236 14.6507 22.5238C16.9669 22.5239 19.1882 21.605 20.826 19.9691C22.4639 18.3332 23.3841 16.1144 23.3842 13.8008C23.3844 11.4872 22.4644 9.26823 20.8268 7.63214C19.1892 5.99605 16.968 5.07682 14.6519 5.07667C12.3357 5.07653 10.1144 5.99547 8.47659 7.63135C6.83875 9.26723 5.91854 11.486 5.91839 13.7997ZM14.6504 27.5891C11.695 27.5886 8.81777 26.6405 6.44205 24.8844C4.06632 23.1283 2.31755 20.6569 1.45302 17.8338C0.588488 15.0107 0.653847 11.9849 1.63948 9.20166C2.62511 6.41841 4.47898 4.02465 6.92832 2.37256C9.37766 0.72047 12.2932 -0.102718 15.2459 0.0241089C18.1985 0.150936 21.0325 1.22108 23.3309 3.0771C25.6292 4.93312 27.2705 7.47701 28.0134 10.3345C28.7562 13.192 28.5613 16.2122 27.4574 18.9508L32.8884 22.5756C32.8486 22.7025 32.811 22.8301 32.7757 22.9583L31.9079 26.0537L29.9189 27.3818L24.3189 23.6444C21.8284 26.0812 18.414 27.5893 14.6504 27.5891ZM5.91624 47.6527C5.91639 45.3391 6.8366 43.1203 8.47445 41.4844C10.1123 39.8485 12.3336 38.9296 14.6497 38.9297C16.9658 38.9299 19.187 39.8491 20.8246 41.4852C22.4623 43.1213 23.3822 45.3402 23.3821 47.6538C23.3819 49.9675 22.4617 52.1863 20.8239 53.8222C19.186 55.458 16.9647 56.377 14.6486 56.3768C12.3325 56.3767 10.1113 55.4575 8.47366 53.8214C6.83603 52.1853 5.9161 49.9664 5.91624 47.6527ZM14.65 33.8644C11.6972 33.8646 8.82223 34.8106 6.4474 36.5635C4.07258 38.3165 2.32306 40.784 1.45583 43.6036C0.588595 46.4231 0.649352 49.4462 1.62918 52.2288C2.609 55.0113 4.45625 57.4067 6.89959 59.063C9.34294 60.7193 12.2536 61.5493 15.2041 61.4311C18.1545 61.3128 20.9893 60.2526 23.2919 58.406C25.5946 56.5595 27.2438 54.024 27.9973 51.172C28.7508 48.32 28.569 45.3018 27.4784 42.5607L85.0786 4.20052L79.7205 4.64181C72.1645 5.43556 64.8473 7.74771 58.209 11.4392L40.8834 21.0622C40.2327 21.4252 39.6607 21.9135 39.2003 22.499C38.7399 23.0844 38.4003 23.7552 38.2013 24.4726L36.7756 29.5716L24.363 37.861C21.7819 35.298 18.2894 33.8609 14.65 33.8644ZM40.8145 40.4228L40.8821 40.4622L58.2065 50.0874C64.8444 53.7797 72.1613 56.0928 79.7172 56.8875L78.9434 53.0842L71.6218 48.4906L50.2014 34.1481L40.8145 40.4228Z" fill="#8162FF"/>
</svg>
